#!OML:ASF H:\ManfredETheater\Project 1\Capture day 1\Session 1\subject.ASF
:FULLY-SPECIFIED
:DEGREES
142
root 1.68247 17.283 -29.6317 -162.991 -7.98553 183.755
lowerback 6.03931 2.19461 5.86299
upperback -2.57983 3.42122 1.37821
thorax -5.83034 1.45143 -2.20829
lowerneck -24.1102 -6.54505 -5.72113
upperneck 12.6315 -7.80657 4.41958
head 8.21463 -3.5337 1.31209
rclavicle -1.61016e-014 -1.74931e-014
rhumerus -39.4233 15.1047 -84.3278
rradius 123.366
rwrist -11.4464
rhand -17.1105 11.6959
rfingers 7.12502
rthumb 9.12874 -18.0866
lclavicle -1.61016e-014 -1.74931e-014
lhumerus -81.8978 -2.93783 91.5874
lradius 109.022
lwrist 13.8904
lhand -16.7281 -10.2581
lfingers 7.12502
lthumb 9.49768 19.5078
rfemur 11.9143 0.998657 34.6662
rtibia 52.4841
rfoot 25.2202 -9.55073
rtoes -2.47895
lfemur -58.9048 -0.559647 -20.1967
ltibia 40.6272
lfoot -13.239 -7.77078
ltoes -10.3311
143
root 1.69673 17.2487 -30.2702 -163.389 -7.8946 183.551
lowerback 6.48694 2.15725 5.47863
upperback -2.43589 3.37302 1.27061
thorax -5.95162 1.44516 -2.1205
lowerneck -23.9634 -6.53835 -5.74485
upperneck 12.3454 -7.84707 4.71521
head 8.1108 -3.53071 1.41505
rclavicle -2.73329e-014 -1.82882e-014
rhumerus -40.2498 14.0815 -85.0004
rradius 120.344
rwrist -11.0352
rhand -17.088 11.1901
rfingers 7.12502
rthumb 9.15043 -18.5914
lclavicle -2.73329e-014 -1.82882e-014
lhumerus -80.4799 -2.33484 91.9974
lradius 109.029
lwrist 13.4788
lhand -16.7427 -10.3455
lfingers 7.12502
lthumb 9.48364 19.4211
rfemur 10.4185 0.47032 34.1094
rtibia 58.1184
rfoot 25.3223 -10.8664
rtoes -2.01551
lfemur -58.2682 -0.0615654 -20.9946
ltibia 41.8746
lfoot -12.4204 -7.92695
ltoes -8.33089
144
root 1.71076 17.2293 -30.909 -163.865 -7.8017 183.047
lowerback 7.12401 2.07414 4.81877
upperback -2.26558 3.24609 1.09909
thorax -6.16878 1.40925 -1.94481
lowerneck -23.7822 -6.50691 -5.75113
upperneck 12.0013 -7.85221 4.974
head 7.97803 -3.51638 1.50899
rclavicle -5.07895e-014 -7.55382e-015
rhumerus -41.1183 12.9838 -85.6958
rradius 117.145
rwrist -10.8013
rhand -17.1795 10.7028
rfingers 7.12502
rthumb 9.06215 -19.0826
lclavicle -5.07895e-014 -7.55382e-015
lhumerus -78.7874 -1.83823 92.5476
lradius 108.899
lwrist 13.2253
lhand -16.7727 -10.4253
lfingers 7.12502
lthumb 9.45463 19.3426
rfemur 8.85433 -0.278012 33.0656
rtibia 63.6883
rfoot 25.2324 -11.5987
rtoes -1.19105
lfemur -57.3759 0.148672 -21.8155
ltibia 43.7523
lfoot -11.8448 -8.15519
ltoes -5.46956
145
root 1.72511 17.1789 -31.5339 -164.429 -7.71891 182.217
lowerback 7.95345 1.95208 3.84902
upperback -2.05769 3.03214 0.864915
thorax -6.47093 1.34104 -1.65572
lowerneck -23.574 -6.45159 -5.73587
upperneck 11.5911 -7.82015 5.1767
head 7.81368 -3.49159 1.58694
rclavicle 2.64384e-014 1.03368e-014
rhumerus -41.9774 11.8144 -86.3628
rradius 113.754
rwrist -10.7711
rhand -17.3645 10.2377
rfingers 7.12502
rthumb 8.88363 -19.5553
lclavicle 2.64384e-014 1.03368e-014
lhumerus -76.8066 -1.46183 93.2305
lradius 108.614
lwrist 13.1
lhand -16.8062 -10.5096
lfingers 7.12502
lthumb 9.42236 19.2597
rfemur 7.2497 -1.25339 31.5239
rtibia 69.292
rfoot 24.5857 -11.8077
rtoes -0.46017
lfemur -56.3472 0.0147148 -22.6986
ltibia 46.1229
lfoot -11.5689 -8.47745
ltoes -1.70906
146
root 1.73954 17.1227 -32.1527 -165.044 -7.65032 181.061
lowerback 8.91739 1.8083 2.5689
upperback -1.81585 2.73234 0.573084
thorax -6.82379 1.24113 -1.23999
lowerneck -23.3607 -6.36973 -5.71089
upperneck 11.1331 -7.74296 5.32058
head 7.62745 -3.45252 1.65024
rclavicle -3.62782e-014 1.98785e-015
rhumerus -42.7987 10.5792 -86.9629
rradius 110.161
rwrist -10.9575
rhand -17.6342 9.80479
rfingers 7.12502
rthumb 8.62331 -19.9991
lclavicle -3.62782e-014 1.98785e-015
lhumerus -74.5268 -1.21363 94.0328
lradius 108.155
lwrist 13.0514
lhand -16.8259 -10.5815
lfingers 7.12502
lthumb 9.40335 19.1887
rfemur 5.5903 -2.41534 29.4485
rtibia 74.8124
rfoot 23.3593 -11.6159
rtoes 0.177285
lfemur -55.0146 -0.410317 -23.7055
ltibia 48.6717
lfoot -11.8177 -8.77877
ltoes 2.53694
147
root 1.75354 17.0615 -32.7647 -165.632 -7.58854 179.637
lowerback 9.92448 1.67402 1.03794
upperback -1.56634 2.37467 0.233309
thorax -7.19328 1.12047 -0.716765
lowerneck -23.1397 -6.27854 -5.69584
upperneck 10.6379 -7.64216 5.42383
head 7.42555 -3.40797 1.70485
rclavicle -4.60187e-014 -1.35174e-014
rhumerus -43.5943 9.26121 -87.4676
rradius 106.382
rwrist -11.3758
rhand -18.0379 9.43163
rfingers 7.12502
rthumb 8.23379 -20.3879
lclavicle -4.60187e-014 -1.35174e-014
lhumerus -71.9578 -1.13887 94.9422
lradius 107.513
lwrist 13.0337
lhand -16.8471 -10.6314
lfingers 7.12502
lthumb 9.38284 19.1398
rfemur 3.78837 -3.70489 26.8937
rtibia 80.2232
rfoot 21.5962 -11.122
rtoes 0.554237
lfemur -53.4281 -1.04372 -24.8674
ltibia 51.209
lfoot -12.7089 -8.91968
ltoes 6.73237
148
root 1.76575 16.9977 -33.3707 -166.099 -7.5272 178.15
lowerback 10.8257 1.57005 -0.532029
upperback -1.34035 2.00648 -0.111304
thorax -7.5155 0.994469 -0.161162
lowerneck -22.94 -6.18794 -5.69526
upperneck 10.1442 -7.53305 5.50232
head 7.22725 -3.36251 1.7537
rclavicle 1.68967e-015 -1.98785e-015
rhumerus -44.3667 7.84706 -87.8411
rradius 102.441
rwrist -11.9473
rhand -18.5809 9.1488
rfingers 7.12502
rthumb 7.7097 -20.6907
lclavicle 1.68967e-015 -1.98785e-015
lhumerus -69.0994 -1.28975 95.9286
lradius 106.68
lwrist 13.0355
lhand -16.9088 -10.6554
lfingers 7.12502
lthumb 9.3233 19.1184
rfemur 1.70933 -5.03797 24.1037
rtibia 85.4226
rfoot 19.5051 -10.4568
rtoes 0.741414
lfemur -51.6635 -1.75772 -26.0564
ltibia 53.4703
lfoot -14.179 -8.81088
ltoes 10.3583
149
root 1.77516 16.9356 -33.9719 -166.395 -7.44511 176.753
lowerback 11.5294 1.50004 -1.98371
upperback -1.16674 1.66647 -0.432581
thorax -7.76498 0.876774 0.360646
lowerneck -22.7611 -6.10234 -5.69954
upperneck 9.69466 -7.42691 5.56279
head 7.04719 -3.31934 1.79573
rclavicle 2.29596e-014 1.31198e-014
rhumerus -45.1557 6.35477 -88.0728
rradius 98.3969
rwrist -12.6085
rhand -19.3058 8.94577
rfingers 7.12502
rthumb 7.00996 -20.9182
lclavicle 2.29596e-014 1.31198e-014
lhumerus -66.0049 -1.70562 96.942
lradius 105.69
lwrist 13.0487
lhand -17.031 -10.6529
lfingers 7.12502
lthumb 9.20547 19.1262
rfemur -0.740745 -6.362 21.3017
rtibia 90.3304
rfoot 17.3027 -9.71326
rtoes 0.862823
lfemur -49.7709 -2.46032 -27.161
ltibia 55.321
lfoot -16.2148 -8.43249
ltoes 12.8179
150
root 1.78135 16.8839 -34.572 -166.494 -7.30436 175.558
lowerback 11.9713 1.46525 -3.21543
upperback -1.06868 1.39252 -0.712739
thorax -7.93233 0.783311 0.79978
lowerneck -22.6023 -6.03064 -5.71532
upperneck 9.33858 -7.33917 5.63473
head 6.90372 -3.28211 1.83934
rclavicle 1.42131e-014 3.97569e-016
rhumerus -46.0203 4.81291 -88.1616
rradius 94.3551
rwrist -13.3071
rhand -20.224 8.84821
rfingers 7.12502
rthumb 6.12355 -21.0433
lclavicle 1.42131e-014 3.97569e-016
lhumerus -62.7528 -2.40926 97.9268
lradius 104.626
lwrist 13.0745
lhand -17.2002 -10.6489
lfingers 7.12502
lthumb 9.04215 19.1373
rfemur -3.62914 -7.65583 18.6684
rtibia 94.8451
rfoot 15.1681 -8.92636
rtoes 1.00863
lfemur -47.8053 -3.07509 -28.0866
ltibia 56.6854
lfoot -18.5319 -7.86726
ltoes 14.5314
151
root 1.78376 16.8449 -35.1732 -166.405 -7.09618 174.619
lowerback 12.1504 1.45422 -4.1618
upperback -1.06636 1.19757 -0.949533
thorax -8.04332 0.719423 1.11478
lowerneck -22.4618 -5.97812 -5.74664
upperneck 9.13903 -7.27875 5.73545
head 6.81842 -3.25203 1.88936
rclavicle 1.28216e-014 2.22639e-014
rhumerus -47.0438 3.2705 -88.1204
rradius 90.4647
rwrist -14.0045
rhand -21.2913 8.80989
rfingers 7.12502
rthumb 5.09311 -21.1089
lclavicle 1.28216e-014 2.22639e-014
lhumerus -59.4611 -3.39147 98.8293
lradius 103.619
lwrist 13.1023
lhand -17.3766 -10.6247
lfingers 7.12502
lthumb 8.87195 19.1688
rfemur -6.9529 -8.91322 16.3623
rtibia 98.8743
rfoot 13.1806 -8.12717
rtoes 1.20763
lfemur -45.7815 -3.53287 -28.8068
ltibia 57.554
lfoot -20.8974 -7.09138
ltoes 15.0535
152
root 1.78342 16.8166 -35.7747 -166.169 -6.82528 173.936
lowerback 12.1045 1.45098 -4.8288
upperback -1.14718 1.06922 -1.1446
thorax -8.11014 0.679816 1.30689
lowerneck -22.3558 -5.93568 -5.7711
upperneck 9.11733 -7.23768 5.85311
head 6.79868 -3.22476 1.9392
rclavicle 2.32578e-014 -2.50469e-014
rhumerus -48.2534 1.82429 -87.9827
rradius 86.8813
rwrist -14.7281
rhand -22.4325 8.82018
rfingers 7.12502
rthumb 3.99117 -21.1222
lclavicle 2.32578e-014 -2.50469e-014
lhumerus -56.2148 -4.58524 99.5951
lradius 102.816
lwrist 13.0799
lhand -17.4921 -10.6232
lfingers 7.12502
lthumb 8.76044 19.175
rfemur -10.6706 -10.1314 14.4892
rtibia 102.367
rfoot 11.325 -7.35835
rtoes 1.38372
lfemur -43.6757 -3.82377 -29.3232
ltibia 57.9665
lfoot -23.2982 -6.18318
ltoes 14.7876
153
root 1.78105 16.7995 -36.3788 -165.84 -6.52306 173.437
lowerback 11.8983 1.43556 -5.27857
upperback -1.30208 0.970306 -1.31543
thorax -8.1613 0.648502 1.39797
lowerneck -22.2773 -5.89565 -5.79088
upperneck 9.28897 -7.20701 5.99237
head 6.84819 -3.19538 1.99216
rclavicle 4.47266e-015 1.63003e-014
rhumerus -49.7008 0.568291 -87.8016
rradius 83.7696
rwrist -15.5027
rhand -23.53 8.89378
rfingers 7.12502
rthumb 2.93125 -21.0658
lclavicle 4.47266e-015 1.63003e-014
lhumerus -53.1325 -5.8839 100.188
lradius 102.38
lwrist 12.913
lhand -17.54 -10.6729
lfingers 7.12502
lthumb 8.71423 19.1273
rfemur -14.6564 -11.3423 13.0252
rtibia 105.258
rfoot 9.55266 -6.60699
rtoes 1.35324
lfemur -41.4529 -4.02092 -29.6847
ltibia 57.9794
lfoot -25.5388 -5.35105
ltoes 14.2704
